<svg width="24" height="24" viewBox="0 0 24 24" fill="none" xmlns="http://www.w3.org/2000/svg">
<g id="checkCircle">
<path id="Vector" d="M12 3.25C7.16751 3.25 3.25 7.16751 3.25 12C3.25 16.8325 7.16751 20.75 12 20.75C16.8325 20.75 20.75 16.8325 20.75 12C20.75 7.16751 16.8325 3.25 12 3.25ZM16.6298 9.93086L11.4198 15.1309C11.1268 15.4233 10.6523 15.423 10.3596 15.1304L7.92963 12.7004C7.63674 12.4075 7.63674 11.9326 7.92963 11.6397C8.22252 11.3468 8.6974 11.3468 8.99029 11.6397L10.8905 13.5399L15.5701 8.86918C15.8633 8.57657 16.3382 8.57703 16.6308 8.8702C16.9234 9.16338 16.923 9.63825 16.6298 9.93086Z" fill="currentColor"/>
</g>
</svg>
